<svg width="24" height="24" viewBox="0 0 24 24" fill="none" xmlns="http://www.w3.org/2000/svg">
<path fill-rule="evenodd" clip-rule="evenodd" d="M17.5572 4.53333C17.7736 4.53333 17.9654 4.67256 18.0325 4.87832L19.7064 10.0117C19.8118 10.3348 19.7064 10.6667 19.2311 10.6667H4.76898C4.29362 10.6667 4.18824 10.3348 4.29362 10.0117L5.96753 4.87832C6.03463 4.67256 6.22648 4.53333 6.4429 4.53333H17.5572ZM5.72577 3C5.29293 3 4.90922 3.27846 4.77504 3.68997L2.42721 10.89C2.21645 11.5363 2.69813 12.2 3.37794 12.2H4V20.3C4 20.8523 4.44772 21.3 5 21.3H19C19.5523 21.3 20 20.8523 20 20.3V12.2H20.6221C21.3019 12.2 21.7836 11.5363 21.5728 10.89L19.225 3.68998C19.0908 3.27846 18.7071 3 18.2743 3H5.72577ZM5.99829 12.2H18.0017C18.2771 12.2009 18.5 12.4244 18.5 12.7V19.3C18.5 19.5761 18.2761 19.8 18 19.8H14V16.75C14 15.7835 13.2165 15 12.25 15H11.75C10.7835 15 10 15.7835 10 16.75V19.8H6C5.72386 19.8 5.5 19.5761 5.5 19.3V12.7C5.5 12.4244 5.72293 12.2009 5.99829 12.2ZM12.5 19.5L12.5 19.8H11.5L11.5 19.5V16.75L11.5 16.7C11.5 16.5343 11.6343 16.4 11.8 16.4H12.2C12.3657 16.4 12.5 16.5343 12.5 16.7V16.7493C12.5 16.7495 12.5 16.7498 12.5 16.75V19.5Z" fill="black"/>
</svg>
